<svg xmlns="http://www.w3.org/2000/svg" viewBox="0 0 220 220" role="img" aria-label="ManAI - ManLab AIOS">
  <!-- Gear (cog) -->
  <g transform="translate(64,16) scale(3.83)" fill="#1B75BC">
    <path d="M12.22 2h-.44a2 2 0 0 0-2 2v.18a2 2 0 0 1-1 1.73l-.43.25a2 2 0 0 1-2 0l-.15-.08a2 2 0 0 0-2.73.73l-.22.38a2 2 0 0 0 .73 2.73l.15.1a2 2 0 0 1 1 1.72v.51a2 2 0 0 1-1 1.74l-.15.09a2 2 0 0 0-.73 2.73l.22.38a2 2 0 0 0 2.73.73l.15-.08a2 2 0 0 1 2 0l.43.25a2 2 0 0 1 1 1.73V20a2 2 0 0 0 2 2h.44a2 2 0 0 0 2-2v-.18a2 2 0 0 1 1-1.73l.43-.25a2 2 0 0 1 2 0l.15.08a2 2 0 0 0 2.73-.73l.22-.39a2 2 0 0 0-.73-2.73l-.15-.08a2 2 0 0 1-1-1.74v-.5a2 2 0 0 1 1-1.74l.15-.09a2 2 0 0 0 .73-2.73l-.22-.38a2 2 0 0 0-2.73-.73l-.15.08a2 2 0 0 1-2 0l-.43-.25a2 2 0 0 1-1-1.73V4a2 2 0 0 0-2-2z"/>
  </g>
  <!-- gear center: white ring + blue smile -->
  <circle cx="110" cy="62" r="16" fill="#ffffff"/>
  <path d="M99 60a11 11 0 0 0 22 0" fill="none" stroke="#1B75BC" stroke-width="4" stroke-linecap="round"/>
  <!-- Wordmark -->
  <text x="108" y="150" text-anchor="middle" font-family="'Segoe UI',Arial,Helvetica,sans-serif" font-weight="800" font-size="52" letter-spacing="-1">
    <tspan fill="#1A8AAB">Man</tspan><tspan fill="#3AA935">AI</tspan>
  </text>
  <text x="186" y="120" font-family="Arial,sans-serif" font-size="15" fill="#3AA935" font-weight="700">®</text>
  <!-- Leaves -->
  <path d="M110 206 C 78 202 52 184 44 158 C 80 162 104 180 110 206 Z" fill="#36A636"/>
  <path d="M110 206 C 142 202 168 184 176 158 C 140 162 116 180 110 206 Z" fill="#2E9E30"/>
  <path d="M58 165 C 82 174 100 188 108 202" fill="none" stroke="#ffffff" stroke-width="2.4" stroke-linecap="round" opacity=".7"/>
  <path d="M162 165 C 138 174 120 188 112 202" fill="none" stroke="#ffffff" stroke-width="2.4" stroke-linecap="round" opacity=".7"/>
</svg>
